<svg width="512" height="512" version="1.1" xmlns="http://www.w3.org/2000/svg" desc="Created with imagetracer.js version 1.2.6" ><path fill="rgb(0,0,0)" stroke="rgb(0,0,0)" stroke-width="1" opacity="0.9921568627450981" d="M 251.5 24 Q 261.1 22.9 266.5 26 L 277 35.5 L 323 97 L 337.5 97 L 343 101.5 L 344 107.5 L 340.5 112 L 338.5 113 L 316 113 L 316 140.5 Q 313.7 141.8 315 146.5 Q 312.3 158.8 306 167.5 L 379.5 168 L 389 174.5 L 389.5 176 L 442.5 176 L 447 179.5 L 448 181.5 L 448 218.5 L 444.5 223 L 442.5 224 L 392 224 Q 394.3 240.6 384.5 246 L 379.5 248 L 338 248 L 360 385.5 L 355.5 391 L 339.5 390 L 321.5 380 L 309.5 379 L 302.5 382 L 289.5 391 L 280 393 L 280 482.5 L 276.5 487 L 274.5 488 L 237.5 488 L 233 484.5 L 232 482.5 L 232 379 L 226.5 379 L 209.5 385 Q 201.3 383.3 197.5 386 L 196.5 385 L 161.5 385 L 156.5 384 L 153 380.5 L 152 373.5 L 155 361.5 L 157 344.5 L 159 338.5 L 160 327.5 L 162 321.5 L 162 316.5 L 165 304.5 L 174 248 L 132.5 248 Q 125.3 246.2 122 240.5 Q 118.3 234.6 120 224 L 69.5 224 L 65 220.5 L 64 218.5 L 64 181.5 L 67.5 177 L 69.5 176 L 123 176 L 126.5 171 L 132.5 168 L 206 167.5 L 200 156.5 L 196 141.5 L 196 113 L 173.5 113 L 169 109.5 L 168 103.5 L 172.5 98 L 174.5 97 L 189 97 L 228 44.5 L 242.5 28 L 251.5 24 Z M 254 40 L 252 41 L 208 97 L 209 98 L 304 98 L 265 46 L 259 40 L 254 40 Z M 212 113 L 211 120 L 212 142 Q 215 154 221 163 Q 231 176 250 180 Q 271 181 282 172 L 293 160 L 299 146 L 301 135 L 301 120 L 300 119 Q 301 113 300 113 L 212 113 Z M 136 184 L 136 232 L 185 232 L 188 233 L 192 240 L 169 369 L 182 369 L 183 370 L 205 370 L 227 363 L 245 363 L 255 367 L 265 375 L 273 378 L 283 377 L 302 365 L 313 363 L 327 365 L 340 372 L 342 374 L 342 368 L 320 241 L 321 237 L 328 232 L 376 232 L 376 184 L 291 184 Q 281 192 266 195 Q 236 197 222 184 L 136 184 Z M 80 192 L 80 208 L 120 208 L 120 192 L 80 192 Z M 392 192 L 392 208 L 432 208 L 432 192 L 392 192 Z M 249 382 L 248 472 L 264 472 L 264 472 L 264 391 Q 255 388 249 382 Z " /><path fill="rgb(0,0,0)" stroke="rgb(0,0,0)" stroke-width="1" opacity="0.9921568627450981" d="M 269.5 213 L 272.5 213 L 281.5 219 L 284.5 219 Q 288.5 214 296.5 213 L 302 217.5 L 303 222.5 L 298 229.5 Q 302.8 231.7 303 238.5 L 298.5 244 L 293.5 245 L 284.5 239 L 281.5 239 L 267.5 249 L 260.5 250 L 257 248 L 255 242.5 L 256 238.5 L 258.5 236 L 269 230 Q 270.1 227.3 267.5 228 Q 263.4 226 263 220.5 L 267.5 214 L 269.5 213 Z " /><path fill="rgb(0,0,0)" stroke="rgb(0,0,0)" stroke-width="1" opacity="0.9921568627450981" d="M 204.5 284 Q 213.5 282.5 215 288.5 L 214 300.5 L 209.5 307 L 205.5 308 L 199 303.5 L 198 298.5 L 200 288.5 L 204.5 284 Z " /><path fill="rgb(0,0,0)" stroke="rgb(0,0,0)" stroke-width="1" opacity="0.9921568627450981" d="M 199.5 319 Q 206.4 318.1 208 322.5 L 209 328.5 L 208 329.5 L 207 340.5 L 202.5 348 Q 193.8 349.8 192 344.5 L 191 338.5 L 194 323.5 L 197.5 320 L 199.5 319 Z " /><path fill="rgb(0,0,0)" stroke="rgb(0,0,0)" stroke-width="1" opacity="0" d="M 0 0 L 512 0 L 512 512 L 0 512 L 0 0 Z M 252 24 L 243 28 L 228 45 L 189 97 L 175 97 L 173 98 L 168 104 L 169 110 L 174 113 L 196 113 L 196 142 L 200 157 L 206 168 L 133 168 L 127 171 L 123 176 L 70 176 L 68 177 L 64 182 L 64 219 L 65 221 L 70 224 L 120 224 Q 118 235 122 241 Q 125 246 133 248 L 174 248 L 165 305 L 162 317 L 162 322 L 160 328 L 159 339 L 157 345 L 155 362 L 152 374 L 153 381 L 157 384 L 162 385 L 197 385 L 198 386 Q 201 383 210 385 L 227 379 L 232 379 L 232 483 L 233 485 L 238 488 L 275 488 L 277 487 L 280 483 L 280 393 L 290 391 L 303 382 L 310 379 L 322 380 L 340 390 L 356 391 L 360 386 L 338 248 L 380 248 L 385 246 Q 394 241 392 224 L 443 224 L 445 223 L 448 219 L 448 182 L 447 180 L 443 176 L 390 176 L 389 175 L 380 168 L 306 168 Q 312 159 315 147 Q 314 142 316 141 L 316 113 L 339 113 L 341 112 L 344 108 L 343 102 L 338 97 L 323 97 L 277 36 L 267 26 Q 261 23 252 24 Z " /><path fill="rgb(139,77,29)" stroke="rgb(139,77,29)" stroke-width="1" opacity="1" d="M 254.5 40 Q 261.1 39.4 263 43.5 L 303 96.5 L 209.5 97 L 210 95.5 L 250.5 42 L 254.5 40 Z " /><path fill="rgb(139,77,29)" stroke="rgb(139,77,29)" stroke-width="1" opacity="1" d="M 213.5 113 L 298.5 113 L 300 114.5 L 299.5 116 L 299 114 L 213.5 114 L 213 115.5 L 212 115.5 L 213.5 113 Z " /><path fill="rgb(139,77,29)" stroke="rgb(139,77,29)" stroke-width="1" opacity="1" d="M 211.5 122 L 212 131.5 L 211 131.5 L 211.5 122 Z " /><path fill="rgb(139,77,29)" stroke="rgb(139,77,29)" stroke-width="1" opacity="1" d="M 300.5 122 L 301 131.5 L 300 131.5 L 300.5 122 Z " /><path fill="rgb(139,77,29)" stroke="rgb(139,77,29)" stroke-width="1" opacity="1" d="M 220.5 160 L 221.5 162 L 220.5 160 Z " /><path fill="rgb(139,77,29)" stroke="rgb(139,77,29)" stroke-width="1" opacity="1" d="M 291.5 160 L 290.5 162 L 291.5 160 Z " /><path fill="rgb(139,77,29)" stroke="rgb(139,77,29)" stroke-width="1" opacity="1" d="M 223.5 164 L 228.5 170 L 223.5 164 Z " /><path fill="rgb(139,77,29)" stroke="rgb(139,77,29)" stroke-width="1" opacity="1" d="M 288.5 164 L 283.5 170 L 288.5 164 Z " /><path fill="rgb(139,77,29)" stroke="rgb(139,77,29)" stroke-width="1" opacity="1" d="M 250.5 179 L 255 179.5 L 250.5 180 L 250.5 179 Z " /><path fill="rgb(139,77,29)" stroke="rgb(139,77,29)" stroke-width="1" opacity="1" d="M 257.5 179 L 262 179.5 L 257.5 180 L 257.5 179 Z " /><path fill="rgb(139,77,29)" stroke="rgb(139,77,29)" stroke-width="1" opacity="1" d="M 80 192 L 120 192 L 120 208 L 80 208 L 80 192 Z " /><path fill="rgb(139,77,29)" stroke="rgb(139,77,29)" stroke-width="1" opacity="1" d="M 392 192 L 432 192 L 432 208 L 392 208 L 392 192 Z " /><path fill="rgb(139,77,29)" stroke="rgb(139,77,29)" stroke-width="1" opacity="1" d="M 257.5 236 L 256.5 238 L 257.5 236 Z " /><path fill="rgb(139,77,29)" stroke="rgb(139,77,29)" stroke-width="1" opacity="1" d="M 215.5 290 L 216 292.5 L 215 292.5 L 215.5 290 Z " /><path fill="rgb(139,77,29)" stroke="rgb(139,77,29)" stroke-width="1" opacity="1" d="M 206.5 320 L 207.5 322 L 206.5 320 Z " /><path fill="rgb(139,77,29)" stroke="rgb(139,77,29)" stroke-width="1" opacity="1" d="M 205.5 345 L 203.5 348 L 205.5 345 Z " /><path fill="rgb(139,77,29)" stroke="rgb(139,77,29)" stroke-width="1" opacity="1" d="M 229.5 362 L 232 362.5 L 229.5 363 L 229.5 362 Z " /><path fill="rgb(139,77,29)" stroke="rgb(139,77,29)" stroke-width="1" opacity="1" d="M 240.5 362 L 243 362.5 L 240.5 363 L 240.5 362 Z " /><path fill="rgb(139,77,29)" stroke="rgb(139,77,29)" stroke-width="1" opacity="1" d="M 170.5 368 L 174 368.5 L 170.5 369 L 170.5 368 Z " /><path fill="rgb(139,77,29)" stroke="rgb(139,77,29)" stroke-width="1" opacity="1" d="M 193.5 369 L 200 369.5 L 193.5 370 L 193.5 369 Z " /><path fill="rgb(139,77,29)" stroke="rgb(139,77,29)" stroke-width="1" opacity="1" d="M 248 383 L 264 392.5 L 264 471.5 L 263.5 472 L 248 472 L 248 383 Z " /><path fill="rgb(252,169,139)" stroke="rgb(252,169,139)" stroke-width="1" opacity="1" d="M 213 114 L 298.5 114 L 299 115.5 L 300 116.5 L 300 138.5 Q 296 161 280.5 172 L 268.5 178 L 255.5 180 L 254.5 179 L 243.5 178 L 234.5 174 L 222 162.5 Q 215.8 154.7 213 143.5 L 212 138.5 L 212 116.5 L 213 114 Z " /><path fill="rgb(243,63,63)" stroke="rgb(243,63,63)" stroke-width="1" opacity="1" d="M 265.5 214 L 264.5 216 L 265.5 214 Z " /><path fill="rgb(243,63,63)" stroke="rgb(243,63,63)" stroke-width="1" opacity="1" d="M 300.5 214 L 301.5 216 L 300.5 214 Z " /><path fill="rgb(243,63,63)" stroke="rgb(243,63,63)" stroke-width="1" opacity="1" d="M 264.5 226 L 265.5 228 L 264.5 226 Z " /><path fill="rgb(243,63,63)" stroke="rgb(243,63,63)" stroke-width="1" opacity="1" d="M 301.5 226 L 300.5 228 L 301.5 226 Z " /><path fill="rgb(243,63,63)" stroke="rgb(243,63,63)" stroke-width="1" opacity="1" d="M 265.5 230 L 264.5 232 L 265.5 230 Z " /><path fill="rgb(243,63,63)" stroke="rgb(243,63,63)" stroke-width="1" opacity="1" d="M 300.5 230 L 301.5 232 L 300.5 230 Z " /><path fill="rgb(243,63,63)" stroke="rgb(243,63,63)" stroke-width="1" opacity="1" d="M 262.5 232 L 261.5 234 L 262.5 232 Z " /><path fill="rgb(243,63,63)" stroke="rgb(243,63,63)" stroke-width="1" opacity="1" d="M 189.5 233 L 190.5 235 L 189.5 233 Z " /><path fill="rgb(243,63,63)" stroke="rgb(243,63,63)" stroke-width="1" opacity="1" d="M 322.5 233 L 321.5 235 L 322.5 233 Z " /><path fill="rgb(243,63,63)" stroke="rgb(243,63,63)" stroke-width="1" opacity="1" d="M 259.5 234 L 258.5 236 L 259.5 234 Z " /><path fill="rgb(243,63,63)" stroke="rgb(243,63,63)" stroke-width="1" opacity="1" d="M 301.5 242 L 300.5 244 L 301.5 242 Z " /><path fill="rgb(243,63,63)" stroke="rgb(243,63,63)" stroke-width="1" opacity="1" d="M 256.5 247 L 258.5 250 L 256.5 247 Z " /><path fill="rgb(243,63,63)" stroke="rgb(243,63,63)" stroke-width="1" opacity="1" d="M 202.5 284 L 200.5 287 L 202.5 284 Z " /><path fill="rgb(243,63,63)" stroke="rgb(243,63,63)" stroke-width="1" opacity="1" d="M 212.5 284 L 214.5 287 L 212.5 284 Z " /><path fill="rgb(243,63,63)" stroke="rgb(243,63,63)" stroke-width="1" opacity="1" d="M 199.5 305 L 200.5 307 L 199.5 305 Z " /><path fill="rgb(243,63,63)" stroke="rgb(243,63,63)" stroke-width="1" opacity="1" d="M 212.5 305 L 211.5 307 L 212.5 305 Z " /><path fill="rgb(243,63,63)" stroke="rgb(243,63,63)" stroke-width="1" opacity="1" d="M 199.5 318 L 203 318.5 L 199.5 319 L 199.5 318 Z " /><path fill="rgb(243,63,63)" stroke="rgb(243,63,63)" stroke-width="1" opacity="1" d="M 195.5 320 L 194.5 322 L 195.5 320 Z " /><path fill="rgb(243,63,63)" stroke="rgb(243,63,63)" stroke-width="1" opacity="1" d="M 209.5 325 L 210 328.5 L 209 328.5 L 209.5 325 Z " /><path fill="rgb(243,63,63)" stroke="rgb(243,63,63)" stroke-width="1" opacity="1" d="M 190.5 339 L 191 342.5 L 190 342.5 L 190.5 339 Z " /><path fill="rgb(243,63,63)" stroke="rgb(243,63,63)" stroke-width="1" opacity="1" d="M 191.5 345 L 193.5 348 L 191.5 345 Z " /><path fill="rgb(243,63,63)" stroke="rgb(243,63,63)" stroke-width="1" opacity="1" d="M 256.5 367 L 257.5 369 L 256.5 367 Z " /><path fill="rgb(243,63,63)" stroke="rgb(243,63,63)" stroke-width="1" opacity="1" d="M 174.5 368 L 179 368.5 L 174.5 369 L 174.5 368 Z " /><path fill="rgb(243,63,63)" stroke="rgb(243,63,63)" stroke-width="1" opacity="1" d="M 293.5 368 L 292.5 370 L 293.5 368 Z " /><path fill="rgb(243,63,63)" stroke="rgb(243,63,63)" stroke-width="1" opacity="1" d="M 260.5 370 L 261.5 372 L 260.5 370 Z " /><path fill="rgb(243,63,63)" stroke="rgb(243,63,63)" stroke-width="1" opacity="1" d="M 290.5 370 L 289.5 372 L 290.5 370 Z " /><path fill="rgb(243,63,63)" stroke="rgb(243,63,63)" stroke-width="1" opacity="1" d="M 264.5 373 L 265.5 375 L 264.5 373 Z " /><path fill="rgb(59,22,16)" stroke="rgb(59,22,16)" stroke-width="1" opacity="1" d="M 248.5 44 L 247.5 46 L 248.5 44 Z " /><path fill="rgb(59,22,16)" stroke="rgb(59,22,16)" stroke-width="1" opacity="1" d="M 263.5 44 L 264.5 46 L 263.5 44 Z " /><path fill="rgb(59,22,16)" stroke="rgb(59,22,16)" stroke-width="1" opacity="1" d="M 245.5 48 L 244.5 50 L 245.5 48 Z " /><path fill="rgb(59,22,16)" stroke="rgb(59,22,16)" stroke-width="1" opacity="1" d="M 266.5 48 L 267.5 50 L 266.5 48 Z " /><path fill="rgb(59,22,16)" stroke="rgb(59,22,16)" stroke-width="1" opacity="1" d="M 242.5 52 L 241.5 54 L 242.5 52 Z " /><path fill="rgb(59,22,16)" stroke="rgb(59,22,16)" stroke-width="1" opacity="1" d="M 269.5 52 L 270.5 54 L 269.5 52 Z " /><path fill="rgb(59,22,16)" stroke="rgb(59,22,16)" stroke-width="1" opacity="1" d="M 273.5 57 L 274.5 59 L 273.5 57 Z " /><path fill="rgb(59,22,16)" stroke="rgb(59,22,16)" stroke-width="1" opacity="1" d="M 235.5 61 L 234.5 63 L 235.5 61 Z " /><path fill="rgb(59,22,16)" stroke="rgb(59,22,16)" stroke-width="1" opacity="1" d="M 276.5 61 L 277.5 63 L 276.5 61 Z " /><path fill="rgb(59,22,16)" stroke="rgb(59,22,16)" stroke-width="1" opacity="1" d="M 232.5 65 L 231.5 67 L 232.5 65 Z " /><path fill="rgb(59,22,16)" stroke="rgb(59,22,16)" stroke-width="1" opacity="1" d="M 279.5 65 L 280.5 67 L 279.5 65 Z " /><path fill="rgb(59,22,16)" stroke="rgb(59,22,16)" stroke-width="1" opacity="1" d="M 229.5 69 L 228.5 71 L 229.5 69 Z " /><path fill="rgb(59,22,16)" stroke="rgb(59,22,16)" stroke-width="1" opacity="1" d="M 282.5 69 L 283.5 71 L 282.5 69 Z " /><path fill="rgb(59,22,16)" stroke="rgb(59,22,16)" stroke-width="1" opacity="1" d="M 286.5 74 L 287.5 76 L 286.5 74 Z " /><path fill="rgb(59,22,16)" stroke="rgb(59,22,16)" stroke-width="1" opacity="1" d="M 222.5 78 L 221.5 80 L 222.5 78 Z " /><path fill="rgb(59,22,16)" stroke="rgb(59,22,16)" stroke-width="1" opacity="1" d="M 289.5 78 L 290.5 80 L 289.5 78 Z " /><path fill="rgb(59,22,16)" stroke="rgb(59,22,16)" stroke-width="1" opacity="1" d="M 219.5 82 L 218.5 84 L 219.5 82 Z " /><path fill="rgb(59,22,16)" stroke="rgb(59,22,16)" stroke-width="1" opacity="1" d="M 292.5 82 L 293.5 84 L 292.5 82 Z " /><path fill="rgb(59,22,16)" stroke="rgb(59,22,16)" stroke-width="1" opacity="1" d="M 216.5 86 L 215.5 88 L 216.5 86 Z " /><path fill="rgb(59,22,16)" stroke="rgb(59,22,16)" stroke-width="1" opacity="1" d="M 295.5 86 L 296.5 88 L 295.5 86 Z " /><path fill="rgb(59,22,16)" stroke="rgb(59,22,16)" stroke-width="1" opacity="1" d="M 299.5 91 L 300.5 93 L 299.5 91 Z " /><path fill="rgb(59,22,16)" stroke="rgb(59,22,16)" stroke-width="1" opacity="1" d="M 209.5 95 L 209.5 97 L 303 96.5 L 302.5 95 L 304 98 L 208.5 98 L 208 96.5 L 209.5 95 Z " /><path fill="rgb(59,22,16)" stroke="rgb(59,22,16)" stroke-width="1" opacity="1" d="M 211.5 119 L 212 121.5 L 211 121.5 L 211.5 119 Z " /><path fill="rgb(59,22,16)" stroke="rgb(59,22,16)" stroke-width="1" opacity="1" d="M 300.5 119 L 301 121.5 L 300 121.5 L 300.5 119 Z " /><path fill="rgb(59,22,16)" stroke="rgb(59,22,16)" stroke-width="1" opacity="1" d="M 211.5 132 L 212 135.5 L 211 135.5 L 211.5 132 Z " /><path fill="rgb(59,22,16)" stroke="rgb(59,22,16)" stroke-width="1" opacity="1" d="M 300.5 132 L 301 134.5 L 300 134.5 L 300.5 132 Z " /><path fill="rgb(59,22,16)" stroke="rgb(59,22,16)" stroke-width="1" opacity="1" d="M 221.5 162 L 222.5 164 L 221.5 162 Z " /><path fill="rgb(59,22,16)" stroke="rgb(59,22,16)" stroke-width="1" opacity="1" d="M 229.5 170 L 230.5 172 L 229.5 170 Z " /><path fill="rgb(59,22,16)" stroke="rgb(59,22,16)" stroke-width="1" opacity="1" d="M 282.5 170 L 281.5 172 L 282.5 170 Z " /><path fill="rgb(59,22,16)" stroke="rgb(59,22,16)" stroke-width="1" opacity="1" d="M 251.5 195 L 261 195.5 L 251.5 196 L 251.5 195 Z " /><path fill="rgb(59,22,16)" stroke="rgb(59,22,16)" stroke-width="1" opacity="1" d="M 266.5 214 L 264.5 217 L 266.5 214 Z " /><path fill="rgb(59,22,16)" stroke="rgb(59,22,16)" stroke-width="1" opacity="1" d="M 299.5 214 L 301.5 217 L 299.5 214 Z " /><path fill="rgb(59,22,16)" stroke="rgb(59,22,16)" stroke-width="1" opacity="1" d="M 264.5 225 L 265.5 227 L 264.5 225 Z " /><path fill="rgb(59,22,16)" stroke="rgb(59,22,16)" stroke-width="1" opacity="1" d="M 301.5 225 L 299.5 228 L 301.5 225 Z " /><path fill="rgb(59,22,16)" stroke="rgb(59,22,16)" stroke-width="1" opacity="1" d="M 266.5 230 L 265.5 232 L 266.5 230 Z " /><path fill="rgb(59,22,16)" stroke="rgb(59,22,16)" stroke-width="1" opacity="1" d="M 299.5 230 L 301.5 233 L 299.5 230 Z " /><path fill="rgb(59,22,16)" stroke="rgb(59,22,16)" stroke-width="1" opacity="1" d="M 263.5 232 L 262.5 234 L 263.5 232 Z " /><path fill="rgb(59,22,16)" stroke="rgb(59,22,16)" stroke-width="1" opacity="1" d="M 188.5 233 L 190.5 236 L 188.5 233 Z " /><path fill="rgb(59,22,16)" stroke="rgb(59,22,16)" stroke-width="1" opacity="1" d="M 323.5 233 L 321.5 236 L 323.5 233 Z " /><path fill="rgb(59,22,16)" stroke="rgb(59,22,16)" stroke-width="1" opacity="1" d="M 301.5 241 L 299.5 244 L 301.5 241 Z " /><path fill="rgb(59,22,16)" stroke="rgb(59,22,16)" stroke-width="1" opacity="1" d="M 206.5 283 L 209 283.5 L 206.5 284 L 206.5 283 Z " /><path fill="rgb(59,22,16)" stroke="rgb(59,22,16)" stroke-width="1" opacity="1" d="M 203.5 284 L 201.5 287 L 203.5 284 Z " /><path fill="rgb(59,22,16)" stroke="rgb(59,22,16)" stroke-width="1" opacity="1" d="M 212.5 285 L 213.5 287 L 212.5 285 Z " /><path fill="rgb(59,22,16)" stroke="rgb(59,22,16)" stroke-width="1" opacity="1" d="M 199.5 304 L 201.5 307 L 199.5 304 Z " /><path fill="rgb(59,22,16)" stroke="rgb(59,22,16)" stroke-width="1" opacity="1" d="M 211.5 305 L 210.5 307 L 211.5 305 Z " /><path fill="rgb(59,22,16)" stroke="rgb(59,22,16)" stroke-width="1" opacity="1" d="M 196.5 320 L 195.5 322 L 196.5 320 Z " /><path fill="rgb(59,22,16)" stroke="rgb(59,22,16)" stroke-width="1" opacity="1" d="M 192.5 345 L 194.5 348 L 192.5 345 Z " /><path fill="rgb(59,22,16)" stroke="rgb(59,22,16)" stroke-width="1" opacity="1" d="M 197.5 348 L 201 348.5 L 197.5 349 L 197.5 348 Z " /><path fill="rgb(59,22,16)" stroke="rgb(59,22,16)" stroke-width="1" opacity="1" d="M 232.5 362 L 240 362.5 L 232.5 363 L 232.5 362 Z " /><path fill="rgb(59,22,16)" stroke="rgb(59,22,16)" stroke-width="1" opacity="1" d="M 308.5 363 L 312 363.5 L 308.5 364 L 308.5 363 Z " /><path fill="rgb(59,22,16)" stroke="rgb(59,22,16)" stroke-width="1" opacity="1" d="M 315.5 363 L 320 363.5 L 315.5 364 L 315.5 363 Z " /><path fill="rgb(59,22,16)" stroke="rgb(59,22,16)" stroke-width="1" opacity="1" d="M 182.5 369 L 193 369.5 L 182.5 370 L 182.5 369 Z " /><path fill="rgb(59,22,16)" stroke="rgb(59,22,16)" stroke-width="1" opacity="1" d="M 200.5 369 L 205 369.5 L 200.5 370 L 200.5 369 Z " /><path fill="rgb(59,22,16)" stroke="rgb(59,22,16)" stroke-width="1" opacity="1" d="M 259.5 370 L 260.5 372 L 259.5 370 Z " /><path fill="rgb(59,22,16)" stroke="rgb(59,22,16)" stroke-width="1" opacity="1" d="M 263.5 373 L 264.5 375 L 263.5 373 Z " /><path fill="rgb(59,22,16)" stroke="rgb(59,22,16)" stroke-width="1" opacity="1" d="M 272.5 377 L 279 377.5 L 272.5 378 L 272.5 377 Z " /><path fill="rgb(59,22,16)" stroke="rgb(59,22,16)" stroke-width="1" opacity="1" d="M 250.5 383 L 252.5 386 L 250.5 383 Z " /><path fill="rgb(59,22,16)" stroke="rgb(59,22,16)" stroke-width="1" opacity="1" d="M 254.5 386 L 262 390.5 L 260.5 391 Q 255.5 389.5 254.5 386 Z " /><path fill="rgb(244,64,64)" stroke="rgb(244,64,64)" stroke-width="1" opacity="1" d="M 136 184 L 220.5 184 Q 234.5 198 264.5 196 L 276.5 193 L 291.5 184 L 376 184 L 376 232 L 324.5 232 L 321 234.5 Q 318.3 238.3 320 246.5 L 321 247.5 L 335 336.5 L 337 342.5 L 341 371.5 L 339.5 371 Q 332.7 365.3 322.5 363 L 305.5 363 Q 291.7 367.2 282.5 376 L 271.5 377 L 250.5 364 Q 241.8 360.2 227.5 362 L 204.5 369 L 179.5 369 L 178.5 368 L 170 368 L 179 320.5 L 184 286.5 L 186 280.5 L 187 269.5 L 189 263.5 L 190 252.5 L 192 246.5 L 192 236.5 L 189.5 233 L 187.5 232 L 136 232 L 136 184 Z M 271 212 L 266 214 L 263 218 Q 262 225 266 228 Q 268 227 267 230 Q 260 233 255 239 L 256 248 L 261 251 L 268 250 L 282 240 L 285 240 L 295 246 L 301 244 L 304 238 L 302 232 L 299 230 Q 298 227 301 228 L 304 222 L 302 216 L 296 212 Q 288 213 285 218 L 282 218 Q 278 213 271 212 Z M 205 283 L 203 284 L 199 289 L 197 300 L 199 306 L 203 308 L 212 307 L 214 304 L 216 295 L 215 287 Q 213 282 205 283 Z M 200 318 L 196 320 L 193 324 L 190 340 L 191 346 Q 193 351 203 349 L 207 345 L 210 329 L 209 323 Q 207 318 200 318 Z " /></svg>